<mxfile host="app.diagrams.net" agent="Mozilla/5.0 (Windows NT 10.0; Win64; x64) AppleWebKit/537.36 (KHTML, like Gecko) Chrome/138.0.0.0 Safari/537.36" version="28.0.7">
  <diagram name="Page-1" id="PywV8A5e1CfOtIUZa0yN">
    <mxGraphModel dx="1042" dy="574" grid="1" gridSize="10" guides="1" tooltips="1" connect="1" arrows="1" fold="1" page="1" pageScale="1" pageWidth="850" pageHeight="1100" math="0" shadow="0">
      <root>
        <mxCell id="0" />
        <mxCell id="1" parent="0" />
        <mxCell id="29GvSTRs5_HQC-kPdzaP-94" value="" style="group" vertex="1" connectable="0" parent="1">
          <mxGeometry x="240" y="68" width="435" height="370.75" as="geometry" />
        </mxCell>
        <mxCell id="29GvSTRs5_HQC-kPdzaP-60" value="" style="group" vertex="1" connectable="0" parent="29GvSTRs5_HQC-kPdzaP-94">
          <mxGeometry x="200" y="2" width="235" height="368.75" as="geometry" />
        </mxCell>
        <mxCell id="29GvSTRs5_HQC-kPdzaP-1" value="" style="rounded=1;whiteSpace=wrap;html=1;rotation=90;arcSize=50;fillColor=#f8cecc;strokeColor=#b85450;" vertex="1" parent="29GvSTRs5_HQC-kPdzaP-60">
          <mxGeometry y="298.75" width="52.5" height="20" as="geometry" />
        </mxCell>
        <mxCell id="29GvSTRs5_HQC-kPdzaP-2" value="" style="rounded=1;whiteSpace=wrap;html=1;rotation=90;arcSize=50;fillColor=#f8cecc;strokeColor=#b85450;" vertex="1" parent="29GvSTRs5_HQC-kPdzaP-60">
          <mxGeometry x="170" y="298.75" width="52.5" height="20" as="geometry" />
        </mxCell>
        <mxCell id="29GvSTRs5_HQC-kPdzaP-3" value="" style="rounded=1;whiteSpace=wrap;html=1;rotation=90;arcSize=50;fillColor=#FF3333;" vertex="1" parent="29GvSTRs5_HQC-kPdzaP-60">
          <mxGeometry x="170" y="304.38" width="30" height="8.75" as="geometry" />
        </mxCell>
        <mxCell id="29GvSTRs5_HQC-kPdzaP-4" value="" style="rounded=1;whiteSpace=wrap;html=1;rotation=90;arcSize=50;fillColor=#FF3333;" vertex="1" parent="29GvSTRs5_HQC-kPdzaP-60">
          <mxGeometry x="22.5" y="304.38" width="30" height="8.75" as="geometry" />
        </mxCell>
        <mxCell id="29GvSTRs5_HQC-kPdzaP-9" value="" style="shape=hexagon;perimeter=hexagonPerimeter2;whiteSpace=wrap;html=1;fixedSize=1;size=20;fillColor=#00CC00;strokeWidth=2;" vertex="1" parent="29GvSTRs5_HQC-kPdzaP-60">
          <mxGeometry x="70" y="298.75" width="80" height="20" as="geometry" />
        </mxCell>
        <mxCell id="29GvSTRs5_HQC-kPdzaP-11" value="" style="endArrow=none;html=1;rounded=0;strokeColor=#00CC00;strokeWidth=6;" edge="1" parent="29GvSTRs5_HQC-kPdzaP-60">
          <mxGeometry width="50" height="50" relative="1" as="geometry">
            <mxPoint x="40" y="308.25" as="sourcePoint" />
            <mxPoint x="70" y="308.25" as="targetPoint" />
          </mxGeometry>
        </mxCell>
        <mxCell id="29GvSTRs5_HQC-kPdzaP-12" value="" style="endArrow=none;html=1;rounded=0;strokeColor=#00CC00;strokeWidth=6;" edge="1" parent="29GvSTRs5_HQC-kPdzaP-60">
          <mxGeometry width="50" height="50" relative="1" as="geometry">
            <mxPoint x="150" y="308.25" as="sourcePoint" />
            <mxPoint x="180" y="308.25" as="targetPoint" />
          </mxGeometry>
        </mxCell>
        <mxCell id="29GvSTRs5_HQC-kPdzaP-13" value="" style="shape=trapezoid;perimeter=trapezoidPerimeter;whiteSpace=wrap;html=1;fixedSize=1;rotation=-180;fillColor=#00CC00;" vertex="1" parent="29GvSTRs5_HQC-kPdzaP-60">
          <mxGeometry x="75" y="228.75" width="70" height="30" as="geometry" />
        </mxCell>
        <mxCell id="29GvSTRs5_HQC-kPdzaP-14" value="" style="endArrow=none;html=1;rounded=0;strokeColor=#00CC00;strokeWidth=6;entryX=0.5;entryY=0;entryDx=0;entryDy=0;" edge="1" parent="29GvSTRs5_HQC-kPdzaP-60" target="29GvSTRs5_HQC-kPdzaP-9">
          <mxGeometry width="50" height="50" relative="1" as="geometry">
            <mxPoint x="109.5" y="258.75" as="sourcePoint" />
            <mxPoint x="109.5" y="288.75" as="targetPoint" />
          </mxGeometry>
        </mxCell>
        <mxCell id="29GvSTRs5_HQC-kPdzaP-15" value="&lt;font style=&quot;color: rgb(204, 255, 255);&quot;&gt;&lt;b&gt;&lt;span style=&quot;font-size: 8px; background-color: transparent;&quot;&gt;Final&amp;nbsp;&lt;/span&gt;&lt;span style=&quot;font-size: 8px; background-color: transparent;&quot;&gt;Drive&lt;/span&gt;&lt;/b&gt;&lt;/font&gt;" style="text;html=1;align=center;verticalAlign=top;resizable=0;points=[];autosize=1;strokeColor=none;fillColor=none;perimeterSpacing=0;strokeWidth=1;spacingTop=-6;spacing=2;spacingLeft=-1;horizontal=1;" vertex="1" parent="29GvSTRs5_HQC-kPdzaP-60">
          <mxGeometry x="80" y="298.75" width="60" height="20" as="geometry" />
        </mxCell>
        <mxCell id="29GvSTRs5_HQC-kPdzaP-16" value="&lt;font style=&quot;font-size: 9px;&quot;&gt;&lt;b&gt;Transmission&lt;/b&gt;&lt;/font&gt;" style="text;html=1;align=center;verticalAlign=middle;resizable=0;points=[];autosize=1;strokeColor=none;fillColor=none;" vertex="1" parent="29GvSTRs5_HQC-kPdzaP-60">
          <mxGeometry x="70" y="218.75" width="80" height="30" as="geometry" />
        </mxCell>
        <mxCell id="29GvSTRs5_HQC-kPdzaP-17" value="" style="shape=cylinder3;whiteSpace=wrap;html=1;boundedLbl=1;backgroundOutline=1;size=7.800018310546875;fillColor=#FF33FF;" vertex="1" parent="29GvSTRs5_HQC-kPdzaP-60">
          <mxGeometry x="80" y="148.75" width="60" height="50" as="geometry" />
        </mxCell>
        <mxCell id="29GvSTRs5_HQC-kPdzaP-18" value="&lt;font style=&quot;font-size: 10px; color: rgb(255, 255, 255);&quot;&gt;&lt;b style=&quot;&quot;&gt;E-motor&lt;br&gt;Generator1&lt;/b&gt;&lt;/font&gt;" style="text;html=1;align=center;verticalAlign=middle;resizable=0;points=[];autosize=1;strokeColor=none;fillColor=none;" vertex="1" parent="29GvSTRs5_HQC-kPdzaP-60">
          <mxGeometry x="70" y="158.75" width="80" height="40" as="geometry" />
        </mxCell>
        <mxCell id="29GvSTRs5_HQC-kPdzaP-20" value="" style="endArrow=none;html=1;rounded=0;strokeColor=#00CC00;strokeWidth=6;entryX=0.5;entryY=0;entryDx=0;entryDy=0;" edge="1" parent="29GvSTRs5_HQC-kPdzaP-60">
          <mxGeometry width="50" height="50" relative="1" as="geometry">
            <mxPoint x="110" y="198.75" as="sourcePoint" />
            <mxPoint x="110" y="228.75" as="targetPoint" />
          </mxGeometry>
        </mxCell>
        <mxCell id="29GvSTRs5_HQC-kPdzaP-21" value="" style="endArrow=none;html=1;rounded=0;strokeColor=#33001A;strokeWidth=6;entryX=0.5;entryY=0;entryDx=0;entryDy=0;" edge="1" parent="29GvSTRs5_HQC-kPdzaP-60">
          <mxGeometry width="50" height="50" relative="1" as="geometry">
            <mxPoint x="124.75" y="208.75" as="sourcePoint" />
            <mxPoint x="95.25" y="208.75" as="targetPoint" />
          </mxGeometry>
        </mxCell>
        <mxCell id="29GvSTRs5_HQC-kPdzaP-22" value="" style="endArrow=none;html=1;rounded=0;strokeColor=#33001A;strokeWidth=6;entryX=0.5;entryY=0;entryDx=0;entryDy=0;" edge="1" parent="29GvSTRs5_HQC-kPdzaP-60">
          <mxGeometry width="50" height="50" relative="1" as="geometry">
            <mxPoint x="124.75" y="218.75" as="sourcePoint" />
            <mxPoint x="95.25" y="218.75" as="targetPoint" />
          </mxGeometry>
        </mxCell>
        <mxCell id="29GvSTRs5_HQC-kPdzaP-23" value="" style="endArrow=classic;startArrow=classic;html=1;rounded=0;strokeColor=#00FF00;" edge="1" parent="29GvSTRs5_HQC-kPdzaP-60">
          <mxGeometry width="50" height="50" relative="1" as="geometry">
            <mxPoint x="80.5" y="228.75" as="sourcePoint" />
            <mxPoint x="80" y="198.75" as="targetPoint" />
          </mxGeometry>
        </mxCell>
        <mxCell id="29GvSTRs5_HQC-kPdzaP-24" value="&lt;font style=&quot;font-size: 9px;&quot;&gt;&lt;b&gt;Coupling&lt;/b&gt;&lt;/font&gt;" style="text;html=1;align=center;verticalAlign=middle;resizable=0;points=[];autosize=1;strokeColor=none;fillColor=none;" vertex="1" parent="29GvSTRs5_HQC-kPdzaP-60">
          <mxGeometry x="125" y="198.75" width="60" height="30" as="geometry" />
        </mxCell>
        <mxCell id="29GvSTRs5_HQC-kPdzaP-25" value="" style="endArrow=classic;startArrow=classic;html=1;rounded=0;strokeColor=#00FF00;" edge="1" parent="29GvSTRs5_HQC-kPdzaP-60">
          <mxGeometry width="50" height="50" relative="1" as="geometry">
            <mxPoint x="70.5" y="258.75" as="sourcePoint" />
            <mxPoint x="70" y="228.75" as="targetPoint" />
          </mxGeometry>
        </mxCell>
        <mxCell id="29GvSTRs5_HQC-kPdzaP-26" value="" style="endArrow=classic;startArrow=classic;html=1;rounded=0;strokeColor=#00FF00;" edge="1" parent="29GvSTRs5_HQC-kPdzaP-60">
          <mxGeometry width="50" height="50" relative="1" as="geometry">
            <mxPoint x="100.5" y="298.75" as="sourcePoint" />
            <mxPoint x="100" y="268.75" as="targetPoint" />
          </mxGeometry>
        </mxCell>
        <mxCell id="29GvSTRs5_HQC-kPdzaP-27" value="" style="endArrow=classic;startArrow=classic;html=1;rounded=0;strokeColor=#00FF00;" edge="1" parent="29GvSTRs5_HQC-kPdzaP-60">
          <mxGeometry width="50" height="50" relative="1" as="geometry">
            <mxPoint x="40" y="297.75" as="sourcePoint" />
            <mxPoint x="86.25" y="297.75" as="targetPoint" />
          </mxGeometry>
        </mxCell>
        <mxCell id="29GvSTRs5_HQC-kPdzaP-28" value="" style="endArrow=classic;startArrow=classic;html=1;rounded=0;strokeColor=#00FF00;" edge="1" parent="29GvSTRs5_HQC-kPdzaP-60">
          <mxGeometry width="50" height="50" relative="1" as="geometry">
            <mxPoint x="133" y="297.75" as="sourcePoint" />
            <mxPoint x="176.75" y="297.75" as="targetPoint" />
          </mxGeometry>
        </mxCell>
        <mxCell id="29GvSTRs5_HQC-kPdzaP-38" value="" style="group" vertex="1" connectable="0" parent="29GvSTRs5_HQC-kPdzaP-60">
          <mxGeometry x="80" width="85" height="123.75" as="geometry" />
        </mxCell>
        <mxCell id="29GvSTRs5_HQC-kPdzaP-29" value="" style="rounded=0;whiteSpace=wrap;html=1;rotation=90;fillColor=#00CC00;" vertex="1" parent="29GvSTRs5_HQC-kPdzaP-38">
          <mxGeometry x="-34.52999999999997" y="34.53" width="123.75" height="54.69" as="geometry" />
        </mxCell>
        <mxCell id="29GvSTRs5_HQC-kPdzaP-30" value="" style="ellipse;whiteSpace=wrap;html=1;aspect=fixed;" vertex="1" parent="29GvSTRs5_HQC-kPdzaP-38">
          <mxGeometry x="10" y="8.75" width="20" height="20" as="geometry" />
        </mxCell>
        <mxCell id="29GvSTRs5_HQC-kPdzaP-31" value="" style="ellipse;whiteSpace=wrap;html=1;aspect=fixed;" vertex="1" parent="29GvSTRs5_HQC-kPdzaP-38">
          <mxGeometry x="10" y="40" width="20" height="20" as="geometry" />
        </mxCell>
        <mxCell id="29GvSTRs5_HQC-kPdzaP-32" value="" style="ellipse;whiteSpace=wrap;html=1;aspect=fixed;" vertex="1" parent="29GvSTRs5_HQC-kPdzaP-38">
          <mxGeometry x="10" y="68.75" width="20" height="20" as="geometry" />
        </mxCell>
        <mxCell id="29GvSTRs5_HQC-kPdzaP-33" value="" style="ellipse;whiteSpace=wrap;html=1;aspect=fixed;" vertex="1" parent="29GvSTRs5_HQC-kPdzaP-38">
          <mxGeometry x="10" y="98.75" width="20" height="20" as="geometry" />
        </mxCell>
        <mxCell id="29GvSTRs5_HQC-kPdzaP-37" value="&lt;font style=&quot;color: rgb(204, 255, 255);&quot; face=&quot;Times New Roman&quot;&gt;&lt;b&gt;IC Engine&lt;/b&gt;&lt;/font&gt;" style="text;html=1;align=center;verticalAlign=middle;resizable=0;points=[];autosize=1;strokeColor=none;fillColor=none;rotation=90;" vertex="1" parent="29GvSTRs5_HQC-kPdzaP-38">
          <mxGeometry x="5" y="46.879999999999995" width="80" height="30" as="geometry" />
        </mxCell>
        <mxCell id="29GvSTRs5_HQC-kPdzaP-39" value="" style="endArrow=classic;html=1;rounded=0;strokeWidth=2;strokeColor=#00CC00;" edge="1" parent="29GvSTRs5_HQC-kPdzaP-38">
          <mxGeometry width="50" height="50" relative="1" as="geometry">
            <mxPoint x="70" y="-1.25" as="sourcePoint" />
            <mxPoint x="70" y="110" as="targetPoint" />
          </mxGeometry>
        </mxCell>
        <mxCell id="29GvSTRs5_HQC-kPdzaP-40" value="" style="endArrow=none;html=1;rounded=0;strokeColor=#00CC00;strokeWidth=7;" edge="1" parent="29GvSTRs5_HQC-kPdzaP-60">
          <mxGeometry width="50" height="50" relative="1" as="geometry">
            <mxPoint x="112.5" y="138.75" as="sourcePoint" />
            <mxPoint x="180" y="138.75" as="targetPoint" />
          </mxGeometry>
        </mxCell>
        <mxCell id="29GvSTRs5_HQC-kPdzaP-41" value="" style="endArrow=none;html=1;rounded=0;strokeWidth=8;strokeColor=#00CC00;" edge="1" parent="29GvSTRs5_HQC-kPdzaP-60">
          <mxGeometry width="50" height="50" relative="1" as="geometry">
            <mxPoint x="109.5" y="153.75" as="sourcePoint" />
            <mxPoint x="109.5" y="123.75" as="targetPoint" />
          </mxGeometry>
        </mxCell>
        <mxCell id="29GvSTRs5_HQC-kPdzaP-43" value="" style="endArrow=classic;html=1;rounded=0;strokeColor=#00CC00;" edge="1" parent="29GvSTRs5_HQC-kPdzaP-60">
          <mxGeometry width="50" height="50" relative="1" as="geometry">
            <mxPoint x="90" y="123.75" as="sourcePoint" />
            <mxPoint x="90" y="143.75" as="targetPoint" />
          </mxGeometry>
        </mxCell>
        <mxCell id="29GvSTRs5_HQC-kPdzaP-44" value="" style="endArrow=classic;html=1;rounded=0;strokeColor=#00CC00;" edge="1" parent="29GvSTRs5_HQC-kPdzaP-60">
          <mxGeometry width="50" height="50" relative="1" as="geometry">
            <mxPoint x="130" y="123.75" as="sourcePoint" />
            <mxPoint x="180" y="123.75" as="targetPoint" />
          </mxGeometry>
        </mxCell>
        <mxCell id="29GvSTRs5_HQC-kPdzaP-45" value="" style="endArrow=classic;html=1;rounded=0;strokeColor=#00CC00;" edge="1" parent="29GvSTRs5_HQC-kPdzaP-60">
          <mxGeometry width="50" height="50" relative="1" as="geometry">
            <mxPoint x="130" y="68.75" as="sourcePoint" />
            <mxPoint x="170" y="68.75" as="targetPoint" />
          </mxGeometry>
        </mxCell>
        <mxCell id="29GvSTRs5_HQC-kPdzaP-47" value="" style="ellipse;whiteSpace=wrap;html=1;strokeColor=#00CC00;fillColor=#00CC00;" vertex="1" parent="29GvSTRs5_HQC-kPdzaP-60">
          <mxGeometry x="180" y="108.75" width="40" height="50" as="geometry" />
        </mxCell>
        <mxCell id="29GvSTRs5_HQC-kPdzaP-48" value="" style="endArrow=none;html=1;rounded=0;strokeColor=#CCFFFF;strokeWidth=2;" edge="1" parent="29GvSTRs5_HQC-kPdzaP-60" source="29GvSTRs5_HQC-kPdzaP-50">
          <mxGeometry width="50" height="50" relative="1" as="geometry">
            <mxPoint x="200" y="153.75" as="sourcePoint" />
            <mxPoint x="200" y="113.75" as="targetPoint" />
          </mxGeometry>
        </mxCell>
        <mxCell id="29GvSTRs5_HQC-kPdzaP-49" value="" style="endArrow=none;html=1;rounded=0;strokeColor=#CCFFFF;strokeWidth=2;" edge="1" parent="29GvSTRs5_HQC-kPdzaP-60">
          <mxGeometry width="50" height="50" relative="1" as="geometry">
            <mxPoint x="182.5" y="133.25" as="sourcePoint" />
            <mxPoint x="222.5" y="133.25" as="targetPoint" />
          </mxGeometry>
        </mxCell>
        <mxCell id="29GvSTRs5_HQC-kPdzaP-51" value="" style="endArrow=none;html=1;rounded=0;strokeColor=#CCFFFF;strokeWidth=2;" edge="1" parent="29GvSTRs5_HQC-kPdzaP-60" target="29GvSTRs5_HQC-kPdzaP-50">
          <mxGeometry width="50" height="50" relative="1" as="geometry">
            <mxPoint x="200" y="153.75" as="sourcePoint" />
            <mxPoint x="200" y="113.75" as="targetPoint" />
          </mxGeometry>
        </mxCell>
        <mxCell id="29GvSTRs5_HQC-kPdzaP-50" value="&lt;font style=&quot;font-size: 10px;&quot;&gt;&lt;b&gt;Mechanical&lt;/b&gt;&lt;/font&gt;&lt;div&gt;&lt;font style=&quot;font-size: 10px;&quot;&gt;&lt;b&gt;Accessories&lt;/b&gt;&lt;/font&gt;&lt;/div&gt;" style="text;html=1;align=center;verticalAlign=middle;resizable=0;points=[];autosize=1;strokeColor=none;fillColor=none;rotation=-88;" vertex="1" parent="29GvSTRs5_HQC-kPdzaP-60">
          <mxGeometry x="160" y="113.75" width="80" height="40" as="geometry" />
        </mxCell>
        <mxCell id="29GvSTRs5_HQC-kPdzaP-52" value="" style="endArrow=none;html=1;rounded=0;strokeColor=#CCFFFF;strokeWidth=2;" edge="1" parent="29GvSTRs5_HQC-kPdzaP-60">
          <mxGeometry width="50" height="50" relative="1" as="geometry">
            <mxPoint x="200" y="153.75" as="sourcePoint" />
            <mxPoint x="200" y="113.75" as="targetPoint" />
          </mxGeometry>
        </mxCell>
        <mxCell id="29GvSTRs5_HQC-kPdzaP-53" value="&lt;b&gt;&lt;font style=&quot;font-size: 10px;&quot;&gt;Brake System&lt;/font&gt;&lt;/b&gt;" style="text;html=1;align=center;verticalAlign=middle;resizable=0;points=[];autosize=1;strokeColor=none;fillColor=none;" vertex="1" parent="29GvSTRs5_HQC-kPdzaP-60">
          <mxGeometry x="60" y="338.75" width="90" height="30" as="geometry" />
        </mxCell>
        <mxCell id="29GvSTRs5_HQC-kPdzaP-54" value="" style="endArrow=classic;html=1;rounded=0;strokeColor=#336600;" edge="1" parent="29GvSTRs5_HQC-kPdzaP-60">
          <mxGeometry width="50" height="50" relative="1" as="geometry">
            <mxPoint x="30" y="297.75" as="sourcePoint" />
            <mxPoint y="297.75" as="targetPoint" />
          </mxGeometry>
        </mxCell>
        <mxCell id="29GvSTRs5_HQC-kPdzaP-55" value="" style="endArrow=classic;html=1;rounded=0;strokeColor=#336600;" edge="1" parent="29GvSTRs5_HQC-kPdzaP-60">
          <mxGeometry width="50" height="50" relative="1" as="geometry">
            <mxPoint x="190" y="297.75" as="sourcePoint" />
            <mxPoint x="220" y="297.75" as="targetPoint" />
          </mxGeometry>
        </mxCell>
        <mxCell id="29GvSTRs5_HQC-kPdzaP-57" value="" style="endArrow=none;html=1;rounded=0;" edge="1" parent="29GvSTRs5_HQC-kPdzaP-60">
          <mxGeometry width="50" height="50" relative="1" as="geometry">
            <mxPoint x="70" y="348.75" as="sourcePoint" />
            <mxPoint x="35" y="318.75" as="targetPoint" />
          </mxGeometry>
        </mxCell>
        <mxCell id="29GvSTRs5_HQC-kPdzaP-58" value="" style="endArrow=none;html=1;rounded=0;" edge="1" parent="29GvSTRs5_HQC-kPdzaP-60">
          <mxGeometry width="50" height="50" relative="1" as="geometry">
            <mxPoint x="135" y="353.13" as="sourcePoint" />
            <mxPoint x="180" y="318.75" as="targetPoint" />
          </mxGeometry>
        </mxCell>
        <mxCell id="29GvSTRs5_HQC-kPdzaP-64" value="" style="endArrow=classic;html=1;rounded=0;exitX=0;exitY=0;exitDx=0;exitDy=7.800018310546875;exitPerimeter=0;strokeColor=#66CC00;strokeWidth=2;" edge="1" parent="29GvSTRs5_HQC-kPdzaP-60" source="29GvSTRs5_HQC-kPdzaP-17">
          <mxGeometry width="50" height="50" relative="1" as="geometry">
            <mxPoint x="100" y="183.75" as="sourcePoint" />
            <mxPoint x="10" y="113.75" as="targetPoint" />
          </mxGeometry>
        </mxCell>
        <mxCell id="29GvSTRs5_HQC-kPdzaP-65" value="" style="endArrow=classic;html=1;rounded=0;strokeColor=#66CC00;strokeWidth=2;" edge="1" parent="29GvSTRs5_HQC-kPdzaP-60">
          <mxGeometry width="50" height="50" relative="1" as="geometry">
            <mxPoint x="80" y="70" as="sourcePoint" />
            <mxPoint x="10" y="80" as="targetPoint" />
          </mxGeometry>
        </mxCell>
        <mxCell id="29GvSTRs5_HQC-kPdzaP-82" value="" style="endArrow=classic;startArrow=classic;html=1;rounded=0;strokeColor=#FF66FF;strokeWidth=2;" edge="1" parent="29GvSTRs5_HQC-kPdzaP-60">
          <mxGeometry width="50" height="50" relative="1" as="geometry">
            <mxPoint x="2.5" y="210" as="sourcePoint" />
            <mxPoint x="72.5" y="170" as="targetPoint" />
            <Array as="points">
              <mxPoint x="22.5" y="190" />
              <mxPoint x="42.5" y="180" />
            </Array>
          </mxGeometry>
        </mxCell>
        <mxCell id="29GvSTRs5_HQC-kPdzaP-91" value="&lt;b&gt;Wheels&lt;/b&gt;" style="text;html=1;align=center;verticalAlign=middle;resizable=0;points=[];autosize=1;strokeColor=none;fillColor=none;" vertex="1" parent="29GvSTRs5_HQC-kPdzaP-60">
          <mxGeometry x="165" y="330" width="70" height="30" as="geometry" />
        </mxCell>
        <mxCell id="29GvSTRs5_HQC-kPdzaP-62" value="" style="shape=card;whiteSpace=wrap;html=1;size=20;fillColor=#009900;" vertex="1" parent="29GvSTRs5_HQC-kPdzaP-94">
          <mxGeometry x="130" y="72" width="80" height="50" as="geometry" />
        </mxCell>
        <mxCell id="29GvSTRs5_HQC-kPdzaP-66" value="&lt;font style=&quot;font-size: 11px; color: rgb(255, 255, 255);&quot; face=&quot;Times New Roman&quot;&gt;&lt;b&gt;Cooling System&lt;/b&gt;&lt;/font&gt;" style="text;html=1;align=center;verticalAlign=middle;resizable=0;points=[];autosize=1;strokeColor=none;fillColor=none;" vertex="1" parent="29GvSTRs5_HQC-kPdzaP-94">
          <mxGeometry x="120" y="82" width="100" height="30" as="geometry" />
        </mxCell>
        <mxCell id="29GvSTRs5_HQC-kPdzaP-69" value="" style="verticalAlign=top;align=left;spacingTop=8;spacingLeft=2;spacingRight=12;shape=cube;size=10;direction=south;fontStyle=4;html=1;whiteSpace=wrap;fillColor=#FF33FF;" vertex="1" parent="29GvSTRs5_HQC-kPdzaP-94">
          <mxGeometry x="10" y="152" width="90" height="50" as="geometry" />
        </mxCell>
        <mxCell id="29GvSTRs5_HQC-kPdzaP-70" value="&lt;font style=&quot;color: rgb(255, 255, 255);&quot; face=&quot;Times New Roman&quot;&gt;&lt;b&gt;Battery&lt;/b&gt;&lt;/font&gt;" style="text;html=1;align=center;verticalAlign=middle;resizable=0;points=[];autosize=1;" vertex="1" parent="29GvSTRs5_HQC-kPdzaP-94">
          <mxGeometry x="10" y="162" width="60" height="30" as="geometry" />
        </mxCell>
        <mxCell id="29GvSTRs5_HQC-kPdzaP-71" value="" style="verticalLabelPosition=bottom;verticalAlign=top;html=1;shape=mxgraph.basic.polygon;polyCoords=[[0.13,0],[0.88,0],[1,0.25],[1,0.75],[0.88,1],[0.13,1],[0,0.75],[0,0.25]];polyline=0;fillColor=#B266FF;" vertex="1" parent="29GvSTRs5_HQC-kPdzaP-94">
          <mxGeometry x="110" y="202" width="90" height="40" as="geometry" />
        </mxCell>
        <mxCell id="29GvSTRs5_HQC-kPdzaP-73" value="" style="endArrow=classic;html=1;rounded=0;strokeColor=#4D9900;strokeWidth=2;" edge="1" parent="29GvSTRs5_HQC-kPdzaP-94">
          <mxGeometry width="50" height="50" relative="1" as="geometry">
            <mxPoint x="160" y="202" as="sourcePoint" />
            <mxPoint x="160" y="122" as="targetPoint" />
          </mxGeometry>
        </mxCell>
        <mxCell id="29GvSTRs5_HQC-kPdzaP-74" value="&lt;font style=&quot;color: rgb(255, 255, 255);&quot; face=&quot;Times New Roman&quot;&gt;&lt;b&gt;Power&amp;nbsp;&lt;/b&gt;&lt;/font&gt;&lt;div&gt;&lt;font style=&quot;color: rgb(255, 255, 255);&quot; face=&quot;Times New Roman&quot;&gt;&lt;b&gt;Accessories&lt;/b&gt;&lt;/font&gt;&lt;/div&gt;" style="text;html=1;align=center;verticalAlign=middle;resizable=0;points=[];autosize=1;strokeColor=none;fillColor=none;" vertex="1" parent="29GvSTRs5_HQC-kPdzaP-94">
          <mxGeometry x="115" y="202" width="80" height="40" as="geometry" />
        </mxCell>
        <mxCell id="29GvSTRs5_HQC-kPdzaP-83" value="" style="endArrow=classic;startArrow=classic;html=1;rounded=0;exitX=0.018;exitY=0.765;exitDx=0;exitDy=0;exitPerimeter=0;strokeColor=#FF33FF;strokeWidth=2;" edge="1" parent="29GvSTRs5_HQC-kPdzaP-94" source="29GvSTRs5_HQC-kPdzaP-71">
          <mxGeometry width="50" height="50" relative="1" as="geometry">
            <mxPoint x="-10" y="252" as="sourcePoint" />
            <mxPoint x="40" y="202" as="targetPoint" />
            <Array as="points">
              <mxPoint x="90" y="232" />
              <mxPoint x="70" y="222" />
            </Array>
          </mxGeometry>
        </mxCell>
        <mxCell id="29GvSTRs5_HQC-kPdzaP-84" value="" style="endArrow=classic;html=1;rounded=0;strokeColor=#00CC00;strokeWidth=2;" edge="1" parent="29GvSTRs5_HQC-kPdzaP-94">
          <mxGeometry width="50" height="50" relative="1" as="geometry">
            <mxPoint x="100" y="152" as="sourcePoint" />
            <mxPoint x="130" y="122" as="targetPoint" />
          </mxGeometry>
        </mxCell>
        <mxCell id="29GvSTRs5_HQC-kPdzaP-85" value="&lt;font style=&quot;color: rgb(255, 255, 255);&quot;&gt;Fuel Tank&lt;/font&gt;" style="labelPosition=center;verticalLabelPosition=middle;align=center;html=1;shape=mxgraph.basic.button;dx=10;whiteSpace=wrap;fillColor=#CCCC00;" vertex="1" parent="29GvSTRs5_HQC-kPdzaP-94">
          <mxGeometry x="50" width="100" height="60" as="geometry" />
        </mxCell>
        <mxCell id="29GvSTRs5_HQC-kPdzaP-86" value="" style="endArrow=classic;html=1;rounded=0;strokeColor=#66CC00;" edge="1" parent="29GvSTRs5_HQC-kPdzaP-94">
          <mxGeometry width="50" height="50" relative="1" as="geometry">
            <mxPoint x="130" y="92" as="sourcePoint" />
            <mxPoint x="90" y="92" as="targetPoint" />
          </mxGeometry>
        </mxCell>
        <mxCell id="29GvSTRs5_HQC-kPdzaP-88" value="" style="endArrow=classic;html=1;rounded=0;exitX=0.568;exitY=1.105;exitDx=0;exitDy=0;exitPerimeter=0;strokeColor=#FF00FF;" edge="1" parent="29GvSTRs5_HQC-kPdzaP-94">
          <mxGeometry width="50" height="50" relative="1" as="geometry">
            <mxPoint x="160.44000000000005" y="242.00000000000006" as="sourcePoint" />
            <mxPoint x="80" y="277.8" as="targetPoint" />
            <Array as="points">
              <mxPoint x="150" y="262" />
              <mxPoint x="120" y="272" />
            </Array>
          </mxGeometry>
        </mxCell>
        <mxCell id="29GvSTRs5_HQC-kPdzaP-90" value="" style="verticalLabelPosition=bottom;verticalAlign=top;html=1;shape=mxgraph.basic.8_point_star;fillColor=#FF33FF;" vertex="1" parent="29GvSTRs5_HQC-kPdzaP-94">
          <mxGeometry y="252" width="80" height="60" as="geometry" />
        </mxCell>
        <mxCell id="29GvSTRs5_HQC-kPdzaP-92" value="&lt;font style=&quot;font-size: 10px; color: rgb(255, 255, 255);&quot; face=&quot;Times New Roman&quot;&gt;&lt;b style=&quot;&quot;&gt;Electrical&lt;/b&gt;&lt;/font&gt;&lt;div&gt;&lt;font style=&quot;font-size: 10px; color: rgb(255, 255, 255);&quot; face=&quot;Times New Roman&quot;&gt;&lt;b style=&quot;&quot;&gt;Accessories&lt;/b&gt;&lt;/font&gt;&lt;/div&gt;" style="text;html=1;align=center;verticalAlign=middle;resizable=0;points=[];autosize=1;strokeColor=none;fillColor=none;" vertex="1" parent="29GvSTRs5_HQC-kPdzaP-94">
          <mxGeometry y="262" width="70" height="40" as="geometry" />
        </mxCell>
        <mxCell id="29GvSTRs5_HQC-kPdzaP-93" value="" style="endArrow=classic;html=1;rounded=0;strokeWidth=4;strokeColor=#66CC00;" edge="1" parent="29GvSTRs5_HQC-kPdzaP-94">
          <mxGeometry width="50" height="50" relative="1" as="geometry">
            <mxPoint x="150" y="32" as="sourcePoint" />
            <mxPoint x="280" y="32" as="targetPoint" />
          </mxGeometry>
        </mxCell>
      </root>
    </mxGraphModel>
  </diagram>
</mxfile>
